<svg xmlns="http://www.w3.org/2000/svg" viewBox="0 0 421.6 422.2"><defs><style>.cls-1{fill:#fff;}</style></defs><g id="Camada_2" data-name="Camada 2"><g id="Camada_1-2" data-name="Camada 1"><path class="cls-1" d="M421.5,211v93c0,56.9-38.3,104.3-94,115.9a108.3,108.3,0,0,1-21.3,2.1q-95.1.3-190.2.1c-56.9,0-106.4-43.3-114.2-99.8A190.4,190.4,0,0,1,.1,298.5Q-.1,209.3,0,120C.1,63.8,36.2,16.7,89.5,3.9A133.3,133.3,0,0,1,119.6.2C180.5-.1,241.4,0,302.4.1,353.5.2,395.9,29.3,414.3,77a106.2,106.2,0,0,1,7.2,39C421.6,147.7,421.5,179.4,421.5,211Zm-46.5.1V118.7c0-40.3-30.6-71.6-70.9-71.8q-93.3-.4-186.6,0c-39.6.2-70.4,31-70.7,70.5q-.4,93.8.1,187.5c.2,40.4,31.4,70.6,71.8,70.6q92.4.2,184.7,0c40.8,0,71.6-31,71.6-71.9Z"/><path class="cls-1" d="M117.6,211a92.9,92.9,0,0,1,92.9-93.2c52.4,0,94.2,41.7,94,93.8S262.3,305,211.4,305,117.6,263.4,117.6,211Zm46.5.4a46.9,46.9,0,1,0,93.8-.2c-.1-26-21.3-47.1-47.1-46.9A46.8,46.8,0,0,0,164.1,211.4Z"/><path class="cls-1" d="M293.2,105.9a23.2,23.2,0,1,1,46.4-.2,23.3,23.3,0,0,1-23.4,23.4A23,23,0,0,1,293.2,105.9Z"/></g></g></svg>