<svg width="43" height="43" viewBox="0 0 43 43" fill="none" xmlns="http://www.w3.org/2000/svg">
<path fill-rule="evenodd" clip-rule="evenodd" d="M36.7217 6.262C34.7357 4.27509 32.3764 2.70061 29.7795 1.6292C27.1826 0.557783 24.3994 0.0105979 21.5902 0.0191415C9.80064 0.0191415 0.203317 9.56852 0.198522 21.3082C0.193307 25.0463 1.17868 28.7191 3.05432 31.9527L0.0191956 42.9808L11.359 40.0205C14.4979 41.7209 18.0116 42.6109 21.5815 42.6097H21.5902C33.3787 42.6097 42.9751 33.0593 42.9808 21.3206C42.988 18.521 42.4383 15.7479 41.3637 13.1627C40.2892 10.5774 38.7112 8.23172 36.7217 6.262ZM21.5902 39.0164H21.5825C18.4 39.0174 15.2755 38.1657 12.5337 36.55L11.8845 36.1664L5.15541 37.9232L6.95155 31.3936L6.52865 30.7223C4.74918 27.9051 3.80639 24.6404 3.80998 21.3082C3.80998 11.5526 11.7895 3.61526 21.5969 3.61526C26.3015 3.60686 30.8169 5.46753 34.1498 8.78803C37.4827 12.1085 39.3602 16.6169 39.3694 21.3216C39.3655 31.0781 31.3898 39.0164 21.5902 39.0164ZM31.3419 25.7645C30.8077 25.4979 28.1773 24.211 27.6901 24.0335C27.203 23.8561 26.8434 23.767 26.4876 24.3001C26.1318 24.8333 25.1067 26.0263 24.795 26.3859C24.4834 26.7455 24.1717 26.7848 23.6375 26.5182C23.1034 26.2516 21.3801 25.6906 19.3385 23.8782C17.7495 22.4676 16.6774 20.7261 16.3657 20.1938C16.0541 19.6616 16.3322 19.373 16.5997 19.1083C16.8404 18.8695 17.1338 18.4869 17.4014 18.1762C17.6689 17.8655 17.7581 17.643 17.9355 17.2882C18.1129 16.9334 18.0247 16.6227 17.8914 16.357C17.7581 16.0914 16.6889 13.4725 16.2439 12.4071C15.8095 11.3695 15.3693 11.5104 15.0414 11.4941C14.7297 11.4788 14.3701 11.4749 14.0163 11.4749C13.7457 11.482 13.4796 11.5447 13.2344 11.6592C12.9892 11.7737 12.7703 11.9375 12.5912 12.1405C12.1012 12.6736 10.7203 13.9625 10.7203 16.5785C10.7203 19.1946 12.6382 21.7263 12.9029 22.0811C13.1676 22.4359 16.6716 27.809 22.0332 30.1134C23.0288 30.5397 24.046 30.9136 25.0808 31.2335C26.361 31.6381 27.5262 31.5816 28.4468 31.4444C29.4738 31.292 31.6113 30.1575 32.0553 28.9147C32.4993 27.6719 32.5003 26.6074 32.367 26.3859C32.2337 26.1644 31.877 26.0301 31.3419 25.7645Z" fill="#0D121E"/>
</svg>
