<svg xmlns="http://www.w3.org/2000/svg" viewBox="0 0 49.9 49.9"><defs><style>.cls-1{fill:#fff;fill-rule:evenodd;}</style></defs><g id="Camada_2" data-name="Camada 2"><g id="Camada_1-2" data-name="Camada 1"><path class="cls-1" d="M37.7,29.9c-.1-.3-.5-.4-1.1-.7l-4.1-2c-.6-.2-1-.3-1.4.3a25.1,25.1,0,0,1-1.9,2.4c-.3.4-.7.4-1.3.1a16.6,16.6,0,0,1-4.8-2.9A18.1,18.1,0,0,1,19.8,23a.9.9,0,0,1,.2-1.3,9,9,0,0,0,.9-1,5.3,5.3,0,0,0,.6-1,1.2,1.2,0,0,0,0-1c-.2-.3-1.4-3.3-1.9-4.5s-1-1.1-1.3-1.1h-1a3.4,3.4,0,0,0-1.8.7,7,7,0,0,0-2.1,5c0,2.9,2.2,5.8,2.5,6.2s4.1,6.6,10.2,9,6.1,1.5,7.2,1.4,3.6-1.4,4.1-2.8A4.3,4.3,0,0,0,37.7,29.9Zm0,0c-.1-.3-.5-.4-1.1-.7l-4.1-2c-.6-.2-1-.3-1.4.3a25.1,25.1,0,0,1-1.9,2.4c-.3.4-.7.4-1.3.1a16.6,16.6,0,0,1-4.8-2.9A18.1,18.1,0,0,1,19.8,23a.9.9,0,0,1,.2-1.3,9,9,0,0,0,.9-1,5.3,5.3,0,0,0,.6-1,1.2,1.2,0,0,0,0-1c-.2-.3-1.4-3.3-1.9-4.5s-1-1.1-1.3-1.1h-1a3.4,3.4,0,0,0-1.8.7,7,7,0,0,0-2.1,5c0,2.9,2.2,5.8,2.5,6.2s4.1,6.6,10.2,9,6.1,1.5,7.2,1.4,3.6-1.4,4.1-2.8A4.3,4.3,0,0,0,37.7,29.9ZM25.4,0A24.4,24.4,0,0,0,.9,24.3,24,24,0,0,0,4.4,36.8L0,49.9l13.5-4.4A24.3,24.3,0,1,0,25.4,0Zm0,44.7a19.8,19.8,0,0,1-11.3-3.4L6.2,43.8l2.5-7.5a20.7,20.7,0,0,1-3.9-12,20.6,20.6,0,0,1,41.2,0A20.6,20.6,0,0,1,25.4,44.7ZM36.6,29.2l-4.1-2c-.6-.2-1-.3-1.4.3a25.1,25.1,0,0,1-1.9,2.4c-.3.4-.7.4-1.3.1a16.6,16.6,0,0,1-4.8-2.9A18.1,18.1,0,0,1,19.8,23a.9.9,0,0,1,.2-1.3,9,9,0,0,0,.9-1,5.3,5.3,0,0,0,.6-1,1.2,1.2,0,0,0,0-1c-.2-.3-1.4-3.3-1.9-4.5s-1-1.1-1.3-1.1h-1a3.4,3.4,0,0,0-1.8.7,7,7,0,0,0-2.1,5c0,2.9,2.2,5.8,2.5,6.2s4.1,6.6,10.2,9,6.1,1.5,7.2,1.4,3.6-1.4,4.1-2.8a4.3,4.3,0,0,0,.3-2.8C37.6,29.6,37.2,29.5,36.6,29.2Z"/></g></g></svg>